<svg aria-hidden="true" style="position: absolute; width: 0; height: 0; overflow: hidden;" version="1.1" xmlns="http://www.w3.org/2000/svg" xmlns:xlink="http://www.w3.org/1999/xlink">
<defs>
<symbol id="icon-hand" viewBox="0 0 33 32">
<path d="M11.012 9.84l-0.723 4.217c-0.038 0.198-0.019 0.403 0.054 0.59s0.198 0.351 0.36 0.47c0.159 0.12 0.349 0.193 0.547 0.21s0.397-0.021 0.575-0.112l3.909-1.963 3.706 1.94c0.177 0.096 0.377 0.14 0.578 0.127s0.393-0.083 0.557-0.2c0.163-0.118 0.29-0.28 0.366-0.467s0.098-0.392 0.064-0.59l-0.723-4.201 3.041-2.988c0.143-0.139 0.244-0.316 0.292-0.511s0.041-0.398-0.021-0.589-0.175-0.36-0.327-0.489c-0.152-0.129-0.338-0.213-0.535-0.242l-4.242-0.62-1.892-3.832c-0.090-0.178-0.227-0.328-0.397-0.432s-0.365-0.158-0.564-0.157c-0.198-0.001-0.393 0.054-0.562 0.158s-0.306 0.253-0.396 0.431l-1.896 3.832-4.242 0.613c-0.199 0.027-0.387 0.11-0.541 0.239s-0.269 0.3-0.331 0.492c-0.062 0.192-0.069 0.398-0.020 0.593s0.152 0.374 0.298 0.513l3.065 2.968zM13.252 5.544c0.092-0.015 0.179-0.053 0.254-0.109s0.135-0.129 0.176-0.213l1.955-3.926 1.955 3.926c0.042 0.086 0.104 0.16 0.181 0.216s0.166 0.093 0.26 0.106l4.332 0.628-3.127 3.039c-0.069 0.066-0.12 0.149-0.15 0.24s-0.037 0.188-0.022 0.283l0.739 4.299-3.788-1.983c-0.083-0.043-0.175-0.065-0.268-0.065s-0.185 0.022-0.268 0.065l-3.987 2.010 0.743-4.319c0.013-0.094 0.003-0.19-0.029-0.28s-0.085-0.17-0.155-0.235l-3.127-3.039 4.328-0.644z"></path>
<path d="M32.056 17.472c-0.196-0.228-0.436-0.414-0.704-0.549s-0.561-0.215-0.86-0.236c-0.299-0.021-0.6 0.019-0.883 0.118s-0.544 0.253-0.767 0.455l-5.414 4.884c-0.014-0.109-0.035-0.216-0.063-0.322-0.091-0.34-0.254-0.657-0.478-0.928s-0.504-0.49-0.82-0.643c-1.005-0.424-2.4-0.228-3.749-0.031-0.789 0.155-1.595 0.205-2.396 0.149-0.357-0.090-0.702-0.222-1.028-0.393-1.024-0.459-2.428-1.088-5.039-0.51-1.348 0.35-2.587 1.036-3.6 1.995v-1.437c0-0.156-0.062-0.306-0.172-0.416s-0.259-0.172-0.415-0.172h-5.082c-0.156 0-0.305 0.062-0.415 0.172s-0.172 0.26-0.172 0.416v11.387c0 0.156 0.062 0.306 0.172 0.416s0.259 0.172 0.415 0.172h5.082c0.156 0 0.305-0.062 0.415-0.172s0.172-0.26 0.172-0.416v-0.817c0.782 0.184 4.332 1.013 6.955 1.013 2.736 0 6.083-0.628 8.143-1.527 3.796-1.653 10.047-8.787 10.555-9.364 0.44-0.415 0.702-0.986 0.73-1.591s-0.181-1.198-0.581-1.652zM5.082 30.822h-3.909v-10.209h3.909v10.209zM31.095 19.864l-0.055 0.055c-0.066 0.075-6.525 7.503-10.164 9.086-1.916 0.836-5.074 1.425-7.666 1.425-2.736 0-6.775-1.005-6.814-1.013-0.047-0.006-0.094-0.006-0.141 0v-6.282c0.426-0.491 1.931-2.085 3.855-2.509 2.236-0.491 3.338 0 4.3 0.436 0.415 0.205 0.853 0.358 1.306 0.456 0.923 0.087 1.854 0.040 2.764-0.141 1.138-0.157 2.428-0.338 3.127-0.043 0.15 0.087 0.282 0.203 0.387 0.342s0.181 0.298 0.223 0.467c0.057 0.232 0.058 0.474 0.003 0.706s-0.165 0.448-0.319 0.629c-0.891 1.201-6.313 3-8.538 2.823-0.156-0.012-0.309 0.039-0.428 0.141s-0.192 0.247-0.204 0.403c-0.012 0.156 0.038 0.311 0.14 0.43s0.246 0.192 0.401 0.204c0.121 0 0.254 0 0.391 0 2.428 0 7.064-1.437 8.761-2.874l0.043-0.024 7.131-6.439c0.214-0.192 0.495-0.291 0.782-0.275 0.15 0.009 0.296 0.049 0.431 0.116s0.254 0.162 0.351 0.277c0.201 0.223 0.306 0.516 0.294 0.817s-0.142 0.584-0.36 0.789z"></path>
</symbol>
<symbol id="icon-ok" viewBox="0 0 24 32">
<path d="M24.177 11.681l-2.084-2.276 0.652-3.002c0.060-0.266-0.101-0.532-0.363-0.619l-2.952-0.945-0.948-2.922c-0.087-0.26-0.356-0.413-0.625-0.359l-3.032 0.646-2.299-2.063c-0.202-0.186-0.518-0.186-0.719 0l-2.299 2.063-3.032-0.646c-0.269-0.060-0.538 0.1-0.625 0.359l-0.955 2.922-2.958 0.945c-0.262 0.087-0.417 0.353-0.363 0.619l0.652 3.002-2.084 2.276c-0.188 0.2-0.188 0.512 0 0.712l2.084 2.276-0.652 3.002c-0.060 0.266 0.101 0.532 0.363 0.619l2.952 0.945 0.121 0.379-3.51 9.631c-0.081 0.213-0.013 0.453 0.168 0.592 0.175 0.14 0.424 0.16 0.619 0.040l3.584-2.17 1.351 3.933c0.074 0.213 0.276 0.359 0.504 0.359h0.007c0.229 0 0.43-0.14 0.504-0.353l3.005-8.226 0.565 0.506c0.101 0.093 0.229 0.14 0.363 0.14s0.255-0.047 0.363-0.14l0.565-0.506 3.005 8.226c0.074 0.213 0.282 0.353 0.504 0.353h0.007c0.229 0 0.43-0.146 0.504-0.359l1.351-3.933 3.584 2.17c0.195 0.12 0.444 0.1 0.619-0.040s0.242-0.379 0.168-0.592l-3.516-9.624 0.121-0.379 2.952-0.945c0.262-0.087 0.417-0.353 0.363-0.619l-0.652-3.002 2.084-2.276c0.175-0.206 0.175-0.512-0.013-0.719zM7.739 29.864l-1.076-3.128c-0.054-0.153-0.175-0.273-0.329-0.333s-0.323-0.040-0.464 0.047l-2.851 1.724 2.521-6.902 0.289 0.885c0.087 0.26 0.356 0.413 0.625 0.359l3.032-0.646 0.874 0.785-2.622 7.208zM21.293 28.18l-2.851-1.724c-0.141-0.087-0.309-0.1-0.464-0.047s-0.276 0.173-0.329 0.333l-1.076 3.128-2.636-7.208 0.874-0.785 3.032 0.646c0.269 0.060 0.538-0.1 0.625-0.359l0.289-0.885 2.535 6.902zM21.118 14.163c-0.114 0.126-0.161 0.299-0.128 0.466l0.605 2.802-2.75 0.879c-0.161 0.053-0.296 0.18-0.35 0.346l-0.262 0.799-0.625 1.924-2.831-0.599c-0.168-0.033-0.343 0.013-0.471 0.126l-2.145 1.917-2.145-1.923c-0.101-0.087-0.229-0.14-0.363-0.14-0.040 0-0.074 0.007-0.114 0.013l-2.831 0.599-0.625-1.923-0.262-0.799c-0.054-0.16-0.182-0.293-0.35-0.346l-2.743-0.872 0.605-2.802c0.034-0.166-0.013-0.339-0.128-0.466l-1.936-2.123 1.943-2.123c0.114-0.126 0.161-0.3 0.128-0.466l-0.605-2.802 2.75-0.879c0.161-0.053 0.296-0.18 0.35-0.346l0.881-2.722 2.831 0.599c0.168 0.033 0.343-0.013 0.471-0.126l2.145-1.917 2.145 1.923c0.128 0.113 0.303 0.16 0.471 0.126l2.831-0.599 0.887 2.722c0.054 0.16 0.181 0.293 0.35 0.346l2.75 0.879-0.605 2.802c-0.034 0.166 0.013 0.339 0.128 0.466l1.936 2.116-1.936 2.123z"></path>
<path d="M12.162 4.319c-4.451 0-8.068 3.581-8.068 7.987s3.617 7.987 8.068 7.987c4.451 0 8.068-3.581 8.068-7.987s-3.617-7.987-8.068-7.987zM12.162 19.228c-3.852 0-6.992-3.108-6.992-6.922s3.14-6.922 6.992-6.922c3.852 0 6.992 3.108 6.992 6.922s-3.14 6.922-6.992 6.922z"></path>
<path d="M15.168 8.353l-4.619 4.526-1.392-1.364c-0.417-0.406-1.096-0.406-1.519 0l-0.854 0.832c-0.202 0.2-0.316 0.466-0.316 0.752s0.114 0.552 0.316 0.752l3.005 2.942c0.208 0.206 0.484 0.306 0.76 0.306s0.551-0.1 0.76-0.306l6.233-6.096c0.202-0.2 0.316-0.466 0.316-0.752s-0.114-0.552-0.316-0.752l-0.854-0.832c-0.417-0.413-1.103-0.413-1.52-0.007zM11.786 14.829l-1.237 1.205-2.999-2.935 0.854-0.825 1.768 1.73c0.208 0.206 0.545 0.206 0.753 0l5.002-4.892-0.377-0.379 1.23 1.205-4.995 4.892z"></path>
</symbol>
<symbol id="icon-livraison" viewBox="0 0 29 32">
<path d="M29.156 7.79l-14.175-7.725c-0.079-0.043-0.167-0.065-0.256-0.065s-0.177 0.022-0.256 0.065l-14.175 7.725c-0.088 0.046-0.162 0.116-0.214 0.201s-0.080 0.184-0.081 0.284v15.45c0 0.1 0.027 0.198 0.078 0.283s0.124 0.155 0.211 0.202l14.175 7.725c0.079 0.043 0.167 0.065 0.256 0.065s0.177-0.022 0.256-0.065l14.175-7.725c0.087-0.047 0.16-0.117 0.211-0.202s0.078-0.183 0.078-0.283v-15.45c0-0.099-0.026-0.197-0.076-0.282s-0.122-0.156-0.208-0.203zM14.72 1.179l13.030 7.096-3.816 2.080-12.577-7.344 3.364-1.832zM1.69 8.275l4.105-2.207 12.572 7.317-3.647 1.986-13.030-7.096zM10.228 3.624l12.577 7.344-3.309 1.804-12.572-7.35 3.304-1.799zM20.221 13.627l2.966-1.611v4.116l-1.145-1.148c-0.064-0.064-0.142-0.111-0.228-0.137s-0.177-0.030-0.265-0.012c-0.088 0.018-0.17 0.058-0.239 0.116s-0.123 0.132-0.157 0.216l-0.932 2.273v-3.813zM1.090 9.197l13.084 7.134v14.197l-13.084-7.134v-14.197zM15.265 30.528v-14.197l3.865-2.108v5.992c0.006 0.124 0.053 0.241 0.134 0.335s0.189 0.156 0.31 0.179c0.12 0.023 0.244 0.004 0.353-0.053s0.195-0.149 0.245-0.262l1.668-4.078 1.494 1.501c0.076 0.078 0.174 0.131 0.28 0.152s0.216 0.011 0.316-0.031c0.1-0.042 0.185-0.113 0.245-0.205s0.092-0.199 0.091-0.308v-6.025l4.078-2.207v14.181l-13.079 7.134z"></path>
</symbol>
<symbol id="icon-support" viewBox="0 0 32 32">
<path d="M26.682 16.917c-0.308-0.308-0.725-0.48-1.16-0.48s-0.852 0.173-1.16 0.48l-1.547 1.547c-0.003 0-0.004 0.007-0.007 0.010l-0.765 0.762c-0.253 0.255-0.554 0.457-0.885 0.595s-0.687 0.209-1.046 0.209-0.714-0.071-1.046-0.209c-0.331-0.138-0.632-0.34-0.885-0.595l-5.413-5.413c-0.255-0.253-0.457-0.554-0.595-0.886s-0.209-0.687-0.209-1.046c0-0.359 0.071-0.714 0.209-1.046s0.34-0.633 0.595-0.886l0.762-0.765 0.007-0.004 1.547-1.546c0.152-0.152 0.273-0.333 0.356-0.532s0.125-0.412 0.125-0.628-0.042-0.429-0.125-0.628c-0.082-0.199-0.203-0.38-0.356-0.532l-4.641-4.644c-0.313-0.298-0.728-0.465-1.16-0.465s-0.847 0.167-1.16 0.465l-1.546 1.546-0.004 0.006c-1.842 1.845-2.921 4.316-3.025 6.92s0.777 5.153 2.466 7.139v1.905c-0.079 0.031-0.155 0.063-0.229 0.095l-1.451-1.451c-0.104-0.099-0.243-0.154-0.387-0.154s-0.282 0.055-0.387 0.154l-2.318 2.318c-0.103 0.103-0.16 0.242-0.16 0.387s0.058 0.284 0.16 0.387l1.451 1.451c-0.033 0.074-0.064 0.15-0.095 0.229h-2.052c-0.145 0-0.284 0.058-0.387 0.16s-0.16 0.242-0.16 0.387v3.281c0 0.145 0.058 0.284 0.16 0.387s0.242 0.16 0.387 0.16h2.052c0.031 0.079 0.062 0.155 0.095 0.229l-1.451 1.452c-0.103 0.103-0.16 0.242-0.16 0.387s0.058 0.284 0.16 0.387l2.318 2.318c0.103 0.103 0.242 0.16 0.387 0.16s0.284-0.058 0.387-0.16l1.451-1.451c0.074 0.032 0.15 0.064 0.229 0.095v2.052c0 0.145 0.058 0.284 0.16 0.387s0.242 0.16 0.387 0.16h3.281c0.145 0 0.284-0.058 0.387-0.16s0.16-0.242 0.16-0.387v-2.052c0.079-0.031 0.155-0.063 0.229-0.095l1.451 1.451c0.104 0.099 0.243 0.154 0.387 0.154s0.282-0.055 0.387-0.154l2.318-2.318c0.102-0.102 0.16-0.242 0.16-0.387s-0.058-0.284-0.16-0.387l-1.451-1.452c0.033-0.074 0.064-0.15 0.095-0.229h1.905c1.984 1.692 4.533 2.574 7.138 2.471s5.076-1.185 6.92-3.029l0.007-0.004 1.546-1.547c0.152-0.152 0.273-0.333 0.356-0.532s0.125-0.412 0.125-0.628-0.043-0.429-0.125-0.628c-0.082-0.199-0.203-0.38-0.356-0.532l-4.639-4.639zM8.898 1.452c0.104-0.099 0.243-0.155 0.387-0.155s0.282 0.055 0.387 0.155l4.639 4.64c0.102 0.103 0.16 0.241 0.16 0.386s-0.057 0.284-0.16 0.386l-1.159 1.159-5.413-5.413 1.16-1.158zM15.309 24.892h-1.892c-0.116 0-0.229 0.037-0.322 0.105s-0.163 0.164-0.198 0.274c-0.085 0.273-0.196 0.538-0.331 0.791-0.057 0.104-0.078 0.223-0.062 0.34s0.071 0.225 0.155 0.309l1.341 1.341-1.545 1.545-1.341-1.341c-0.084-0.084-0.192-0.138-0.309-0.155s-0.236 0.005-0.34 0.062c-0.252 0.136-0.517 0.246-0.791 0.331-0.11 0.036-0.206 0.105-0.274 0.199s-0.105 0.206-0.105 0.322v1.892h-2.187v-1.892c0-0.116-0.037-0.228-0.105-0.322s-0.164-0.163-0.274-0.199c-0.274-0.084-0.538-0.195-0.791-0.331-0.104-0.057-0.223-0.079-0.34-0.062s-0.226 0.071-0.309 0.155l-1.341 1.341-1.542-1.545 1.341-1.341c0.084-0.084 0.138-0.192 0.155-0.309s-0.005-0.236-0.062-0.34c-0.134-0.253-0.244-0.517-0.328-0.791-0.036-0.111-0.106-0.208-0.201-0.276s-0.209-0.105-0.325-0.103h-1.892v-2.187h1.892c0.116 0 0.229-0.037 0.322-0.105s0.163-0.164 0.198-0.275c0.084-0.273 0.194-0.538 0.328-0.791 0.057-0.104 0.078-0.223 0.062-0.34s-0.071-0.225-0.155-0.309l-1.335-1.341 1.542-1.545 1.341 1.341c0.084 0.084 0.192 0.138 0.309 0.155s0.236-0.005 0.34-0.062c0.252-0.136 0.517-0.246 0.791-0.331 0.11-0.036 0.206-0.105 0.274-0.199s0.105-0.206 0.105-0.322v-1.892h2.187v1.892c-0 0.116 0.037 0.228 0.105 0.322s0.164 0.163 0.274 0.199c0.274 0.084 0.538 0.195 0.791 0.331 0.104 0.057 0.223 0.079 0.34 0.062s0.226-0.071 0.309-0.155l1.341-1.341 1.545 1.545-1.341 1.341c-0.084 0.084-0.138 0.192-0.155 0.309s0.005 0.236 0.062 0.34c0.135 0.252 0.246 0.517 0.331 0.791 0.035 0.11 0.105 0.206 0.198 0.275s0.206 0.105 0.322 0.105h1.892v2.187zM16.403 25.142v-2.984c0-0.145-0.058-0.284-0.16-0.387s-0.242-0.16-0.387-0.16h-2.052c-0.031-0.079-0.062-0.155-0.095-0.229l1.451-1.451c0.102-0.102 0.16-0.241 0.16-0.387s-0.058-0.284-0.16-0.387l-2.318-2.318c-0.103-0.103-0.242-0.16-0.387-0.16s-0.284 0.058-0.387 0.16l-1.451 1.451c-0.074-0.032-0.15-0.064-0.229-0.095v-2.052c0-0.145-0.058-0.284-0.16-0.387s-0.242-0.16-0.387-0.16h-2.983c-1.457-1.705-2.247-3.879-2.226-6.122s0.854-4.401 2.343-6.078l5.4 5.4-0.383 0.386c-0.357 0.355-0.64 0.777-0.833 1.241s-0.292 0.963-0.292 1.465c0 0.503 0.099 1.001 0.292 1.466s0.476 0.886 0.833 1.241l5.413 5.413c0.354 0.356 0.776 0.639 1.24 0.832s0.962 0.293 1.464 0.293c0.503 0 1-0.099 1.465-0.291s0.886-0.475 1.241-0.831l0.389-0.386 5.401 5.4c-1.677 1.489-3.837 2.321-6.080 2.342s-4.418-0.77-6.123-2.227zM30.548 23.103l-1.159 1.159-5.413-5.413 1.159-1.158c0.103-0.102 0.242-0.16 0.387-0.16s0.284 0.058 0.387 0.16l4.639 4.639c0.103 0.103 0.16 0.242 0.16 0.387s-0.058 0.284-0.16 0.387z"></path>
</symbol>
<symbol id="iconLineH" viewBox="0 0 32 32">
<path d="M32 5.76c-0.007 0.507-0.211 0.992-0.57 1.35s-0.843 0.563-1.35 0.57h-28.16c-0.507-0.007-0.992-0.211-1.35-0.57s-0.563-0.843-0.57-1.35c0.007-0.507 0.211-0.992 0.57-1.35s0.843-0.563 1.35-0.57h28.16c0.507 0.007 0.992 0.211 1.35 0.57s0.563 0.843 0.57 1.35z"></path>
<path d="M32 16c-0.007 0.507-0.211 0.992-0.57 1.35s-0.843 0.563-1.35 0.57h-28.16c-0.507-0.007-0.992-0.211-1.35-0.57s-0.563-0.843-0.57-1.35c0.007-0.507 0.211-0.992 0.57-1.35s0.843-0.563 1.35-0.57h28.16c0.507 0.007 0.992 0.211 1.35 0.57s0.563 0.843 0.57 1.35z"></path>
<path d="M32 26.24c-0.007 0.507-0.211 0.992-0.57 1.35s-0.843 0.563-1.35 0.57h-28.16c-0.507-0.007-0.992-0.211-1.35-0.57s-0.563-0.843-0.57-1.35c0.007-0.507 0.211-0.992 0.57-1.35s0.843-0.563 1.35-0.57h28.16c0.507 0.007 0.992 0.211 1.35 0.57s0.563 0.843 0.57 1.35z"></path>
</symbol>
<symbol id="icon-lineV" viewBox="0 0 32 32">
<path d="M10.88 0c0.507 0.007 0.992 0.211 1.35 0.57s0.563 0.843 0.57 1.35v28.16c-0.007 0.507-0.211 0.992-0.57 1.35s-0.843 0.563-1.35 0.57c-0.507-0.007-0.992-0.211-1.35-0.57s-0.563-0.843-0.57-1.35v-28.16c0.007-0.507 0.211-0.992 0.57-1.35s0.843-0.563 1.35-0.57z"></path>
<path d="M21.119 0c0.507 0.007 0.992 0.211 1.35 0.57s0.563 0.843 0.57 1.35v28.16c-0.007 0.507-0.211 0.992-0.57 1.35s-0.843 0.563-1.35 0.57c-0.507-0.007-0.992-0.211-1.35-0.57s-0.563-0.843-0.57-1.35v-28.16c0.007-0.507 0.211-0.992 0.57-1.35s0.843-0.563 1.35-0.57z"></path>
</symbol>
<symbol id="icon-lineV1" viewBox="0 0 32 32">
<path d="M5.76 0c0.507 0.007 0.992 0.211 1.35 0.57s0.563 0.843 0.57 1.35v28.16c-0.007 0.507-0.211 0.992-0.57 1.35s-0.843 0.563-1.35 0.57c-0.507-0.007-0.992-0.211-1.35-0.57s-0.563-0.843-0.57-1.35v-28.16c0.007-0.507 0.211-0.992 0.57-1.35s0.843-0.563 1.35-0.57z"></path>
<path d="M15.999 0c0.507 0.007 0.992 0.211 1.35 0.57s0.563 0.843 0.57 1.35v28.16c-0.007 0.507-0.211 0.992-0.57 1.35s-0.843 0.563-1.35 0.57c-0.507-0.007-0.992-0.211-1.35-0.57s-0.563-0.843-0.57-1.35v-28.16c0.007-0.507 0.211-0.992 0.57-1.35s0.843-0.563 1.35-0.57z"></path>
<path d="M26.24 0c0.507 0.007 0.992 0.211 1.35 0.57s0.563 0.843 0.57 1.35v28.16c-0.007 0.507-0.211 0.992-0.57 1.35s-0.843 0.563-1.35 0.57c-0.507-0.007-0.992-0.211-1.35-0.57s-0.563-0.843-0.57-1.35v-28.16c0.007-0.507 0.211-0.992 0.57-1.35s0.843-0.563 1.35-0.57z"></path>
</symbol>
<symbol id="icon-Layer-2" viewBox="0 0 32 32">
<path d="M1.778 1.185c0.47 0.006 0.918 0.195 1.25 0.527s0.521 0.781 0.527 1.25v26.074c-0.006 0.47-0.195 0.918-0.527 1.25s-0.781 0.521-1.25 0.527c-0.47-0.006-0.918-0.195-1.25-0.527s-0.521-0.781-0.527-1.25v-26.074c0.006-0.47 0.195-0.918 0.527-1.25s0.781-0.521 1.25-0.527z"></path>
<path d="M11.26 1.185c0.47 0.006 0.918 0.195 1.25 0.527s0.521 0.781 0.527 1.25v26.074c-0.006 0.47-0.195 0.918-0.527 1.25s-0.781 0.521-1.25 0.527c-0.47-0.006-0.918-0.195-1.25-0.527s-0.521-0.781-0.527-1.25v-26.074c0.006-0.47 0.195-0.918 0.527-1.25s0.781-0.521 1.25-0.527z"></path>
<path d="M20.741 1.185c0.47 0.006 0.918 0.195 1.25 0.527s0.521 0.781 0.527 1.25v26.074c-0.006 0.47-0.195 0.918-0.527 1.25s-0.781 0.521-1.25 0.527c-0.47-0.006-0.918-0.195-1.25-0.527s-0.521-0.781-0.527-1.25v-26.074c0.006-0.47 0.195-0.918 0.527-1.25s0.781-0.521 1.25-0.527z"></path>
<path d="M30.222 1.185c0.47 0.006 0.918 0.195 1.25 0.527s0.521 0.781 0.527 1.25v26.074c-0.006 0.47-0.195 0.918-0.527 1.25s-0.781 0.521-1.25 0.527c-0.47-0.006-0.918-0.195-1.25-0.527s-0.521-0.781-0.527-1.25v-26.074c0.006-0.47 0.195-0.918 0.527-1.25s0.781-0.521 1.25-0.527z"></path>
</symbol>
<symbol id="icon-lineV2" viewBox="0 0 32 32">
<path d="M1.778 1.185c0.47 0.006 0.918 0.195 1.25 0.527s0.521 0.781 0.527 1.25v26.074c-0.006 0.47-0.195 0.918-0.527 1.25s-0.781 0.521-1.25 0.527c-0.47-0.006-0.918-0.195-1.25-0.527s-0.521-0.781-0.527-1.25v-26.074c0.006-0.47 0.195-0.918 0.527-1.25s0.781-0.521 1.25-0.527z"></path>
<path d="M11.26 1.185c0.47 0.006 0.918 0.195 1.25 0.527s0.521 0.781 0.527 1.25v26.074c-0.006 0.47-0.195 0.918-0.527 1.25s-0.781 0.521-1.25 0.527c-0.47-0.006-0.918-0.195-1.25-0.527s-0.521-0.781-0.527-1.25v-26.074c0.006-0.47 0.195-0.918 0.527-1.25s0.781-0.521 1.25-0.527z"></path>
<path d="M20.741 1.185c0.47 0.006 0.918 0.195 1.25 0.527s0.521 0.781 0.527 1.25v26.074c-0.006 0.47-0.195 0.918-0.527 1.25s-0.781 0.521-1.25 0.527c-0.47-0.006-0.918-0.195-1.25-0.527s-0.521-0.781-0.527-1.25v-26.074c0.006-0.47 0.195-0.918 0.527-1.25s0.781-0.521 1.25-0.527z"></path>
<path d="M30.222 1.185c0.47 0.006 0.918 0.195 1.25 0.527s0.521 0.781 0.527 1.25v26.074c-0.006 0.47-0.195 0.918-0.527 1.25s-0.781 0.521-1.25 0.527c-0.47-0.006-0.918-0.195-1.25-0.527s-0.521-0.781-0.527-1.25v-26.074c0.006-0.47 0.195-0.918 0.527-1.25s0.781-0.521 1.25-0.527z"></path>
</symbol>
<symbol id="icon-lineV3" viewBox="0 0 32 32">
<path d="M1.371 4.572c0.362 0.005 0.708 0.151 0.964 0.407s0.402 0.602 0.407 0.965v20.114c-0.005 0.362-0.151 0.708-0.407 0.965s-0.602 0.402-0.965 0.407c-0.362-0.005-0.708-0.151-0.965-0.407s-0.402-0.602-0.407-0.965v-20.114c0.005-0.362 0.151-0.708 0.407-0.965s0.602-0.402 0.965-0.407z"></path>
<path d="M8.685 4.572c0.362 0.005 0.708 0.151 0.964 0.407s0.402 0.602 0.407 0.965v20.114c-0.005 0.362-0.151 0.708-0.407 0.965s-0.602 0.402-0.964 0.407c-0.362-0.005-0.708-0.151-0.965-0.407s-0.402-0.602-0.407-0.965v-20.114c0.005-0.362 0.151-0.708 0.407-0.965s0.602-0.402 0.964-0.407z"></path>
<path d="M16 4.572c0.362 0.005 0.708 0.151 0.965 0.407s0.402 0.602 0.407 0.965v20.114c-0.005 0.362-0.151 0.708-0.407 0.965s-0.602 0.402-0.965 0.407c-0.362-0.005-0.708-0.151-0.965-0.407s-0.402-0.602-0.407-0.965v-20.114c0.005-0.362 0.151-0.708 0.407-0.965s0.602-0.402 0.965-0.407z"></path>
<path d="M23.314 4.572c0.362 0.005 0.708 0.151 0.965 0.407s0.402 0.602 0.407 0.965v20.114c-0.005 0.362-0.151 0.708-0.407 0.965s-0.602 0.402-0.965 0.407c-0.362-0.005-0.708-0.151-0.965-0.407s-0.402-0.602-0.407-0.965v-20.114c0.005-0.362 0.151-0.708 0.407-0.965s0.602-0.402 0.965-0.407z"></path>
<path d="M30.628 4.572c0.362 0.005 0.708 0.151 0.965 0.407s0.402 0.602 0.407 0.965v20.114c-0.005 0.362-0.151 0.708-0.407 0.965s-0.602 0.402-0.965 0.407c-0.362-0.005-0.708-0.151-0.965-0.407s-0.402-0.602-0.407-0.965v-20.114c0.005-0.362 0.151-0.708 0.407-0.965s0.602-0.402 0.965-0.407z"></path>
</symbol>
</defs>
</svg>
